<svg width="42" height="77" viewBox="0 0 42 77" fill="none" xmlns="http://www.w3.org/2000/svg">
<path d="M2.96122 0.148438C2.17585 0.148438 1.42266 0.482238 0.867321 1.07641C0.311985 1.67058 0 2.47644 0 3.31672V57.1776C0 58.0179 0.311985 58.8237 0.867321 59.4179C1.42266 60.0121 2.17585 60.3459 2.96122 60.3459C3.41898 60.3449 3.8703 60.2304 4.27973 60.0114C4.68917 59.7924 5.04556 59.4747 5.32094 59.0835L14.569 48.0502L24.8233 73.3903C25.768 75.7285 28.3294 76.7844 30.4971 75.7294C32.6351 74.6902 33.5822 71.9991 32.6139 69.7084L22.0298 44.6282L38.4958 44.5044C39.2812 44.5044 40.0344 44.1706 40.5897 43.5765C41.145 42.9823 41.457 42.1764 41.457 41.3362C41.457 40.864 41.3583 40.3978 41.1681 39.9716C40.978 39.5455 40.7013 39.1703 40.3581 38.8733L5.28045 1.34892C5.00336 0.974824 4.65085 0.672547 4.24925 0.464671C3.84765 0.256795 3.40735 0.148692 2.96122 0.148438Z" fill="#795548"/>
</svg>
